<?xml version="1.0" encoding="UTF-8" standalone="no"?>
<!-- Created with Inkscape (http://www.inkscape.org/) -->

<svg
   width="24.999996mm"
   height="24.999996mm"
   viewBox="0 0 24.999996 24.999996"
   version="1.1"
   id="svg1"
   xml:space="preserve"
   xmlns="http://www.w3.org/2000/svg"
   xmlns:svg="http://www.w3.org/2000/svg"><defs
     id="defs1" /><g
     id="layer10"
     transform="translate(-15.000003,-170)"><rect
       style="opacity:1;fill:#ffffff;fill-opacity:1;stroke-width:8.26822;stroke-linecap:square"
       id="rect9"
       width="24.999996"
       height="24.999996"
       x="15.000003"
       y="170" /><g
       id="g6-6-0"
       transform="translate(0.02777268,92.50006)"><path
         id="rect14-8-1-4"
         style="fill:#058e84;fill-opacity:1;stroke:none;stroke-width:6.61458;stroke-linecap:square"
         d="m 25.972575,81.499935 v 0.999939 h -1.000456 v 0.999939 H 23.97218 v 0.999939 1.000456 0.999938 h 0.999939 v 0.999939 h 1.000456 v 0.999939 H 24.972119 23.97218 v 0.999939 h -0.999939 v 0.999939 0.999939 0.999939 1.000456 H 23.97218 V 92.49978 91.499841 90.499902 h 0.999939 v 0.999939 0.999939 1.000456 0.999939 0.999939 0.999939 0.999939 0.999939 h 1.000456 0.999939 v -0.999939 -0.999939 -0.999939 -0.999939 h 0.999939 v 0.999939 0.999939 0.999939 0.999939 h 0.999939 0.999939 V 97.499992 96.500053 95.500114 94.500175 93.500236 92.49978 91.499841 90.499902 h 0.999939 v 0.999939 0.999939 1.000456 h 0.999939 V 92.49978 91.499841 90.499902 89.499963 H 30.97227 v -0.999939 h -0.999939 -0.999939 v -0.999939 h 0.999939 v -0.999939 h 0.999939 v -0.999938 -1.000456 -0.999939 h -0.999939 v -0.999939 h -0.999939 v -0.999939 h -0.999939 -0.999939 z" /><path
         id="rect139-1-3-0"
         style="fill:#fe7e40;fill-opacity:1;stroke:none;stroke-width:6.61458;stroke-linecap:square"
         d="m 32.972148,83.499813 v 0.999939 h 0.999939 v 1.000456 h 1.000455 v 0.999938 0.999939 0.999939 0.999939 h 0.999939 v 0.999939 h -0.999939 v 0.999939 0.999939 1.000456 0.999939 h -1.000455 v 0.999939 h -0.999939 v 0.999939 h 0.999939 1.000455 v -0.999939 h 0.999939 V 94.500175 93.500236 92.49978 91.499841 h 0.999939 v -0.999939 h 0.999939 V 89.499963 H 36.97242 v -0.999939 h -0.999939 v -0.999939 -0.999939 -0.999938 -1.000456 h -0.999939 v -0.999939 h -1.000455 z" /><path
         id="rect119-0-2-9"
         style="fill:#fe7e40;stroke-width:6.61458;stroke-linecap:square"
         d="m 19.972424,83.499813 v 0.999939 h -0.999939 v 1.000456 0.999938 0.999939 0.999939 h -0.999939 v 0.999939 h -1.000455 v 0.999939 h 1.000455 v 0.999939 h 0.999939 v 0.999939 1.000456 0.999939 0.999939 h 0.999939 v 0.999939 h 0.999939 0.999939 V 95.500114 H 20.972363 V 94.500175 H 19.972424 V 93.500236 92.49978 91.499841 90.499902 h -0.999939 v -0.999939 h 0.999939 v -0.999939 -0.999939 -0.999939 -0.999938 h 0.999939 v -1.000456 h 0.999939 v -0.999939 h -0.999939 z" /><g
         id="text1-09-1-1"
         style="font-weight:900;font-size:16.0161px;line-height:0.8;font-family:'Inter Variable';-inkscape-font-specification:'Inter Variable Heavy';letter-spacing:0px;word-spacing:0px;fill:#fe7e40;stroke-width:6.61458;stroke-linecap:square"
         aria-label="code for" /></g></g></svg>
