<svg xmlns="http://www.w3.org/2000/svg" width="600" height="400" viewBox="0 0 600 400"><rect width="100%" height="100%" fill="#DDDDDD"/><path fill="#999999" d="M128.845 194.73v16.1q1.47 1.78 3.2 2.52 1.74.73 3.77.73 1.96 0 3.53-.73 1.58-.74 2.68-2.24 1.1-1.51 1.7-3.8.59-2.29.59-5.41 0-3.15-.51-5.33-.5-2.19-1.45-3.56-.94-1.36-2.29-1.99t-3.06-.63q-2.7 0-4.59 1.14-1.89 1.13-3.57 3.2m-1.15-8.93.7 3.33q2.2-2.49 5-4.03t6.58-1.54q2.94 0 5.37 1.23 2.44 1.22 4.2 3.55 1.77 2.33 2.73 5.74.97 3.41.97 7.82 0 4.03-1.09 7.46-1.08 3.43-3.1 5.95-2.01 2.52-4.86 3.94t-6.39 1.42q-3.01 0-5.14-.93-2.14-.93-3.82-2.58v14.71h-8.64v-47.64h5.28q1.68 0 2.21 1.57m32.37-17.67h8.65v52.01h-8.65zm36.26 42.73v-6.05q-3.74.17-6.3.65-2.55.47-4.09 1.2-1.54.74-2.21 1.72-.66.98-.66 2.13 0 2.28 1.34 3.26 1.35.98 3.52.98 2.66 0 4.6-.96 1.95-.97 3.8-2.93M178.055 192l-1.54-2.77q6.2-5.67 14.91-5.67 3.15 0 5.64 1.04 2.48 1.03 4.2 2.87 1.71 1.83 2.6 4.39.9 2.55.9 5.6v22.68h-3.92q-1.23 0-1.89-.37-.67-.37-1.05-1.49l-.77-2.59q-1.37 1.23-2.66 2.16-1.3.92-2.7 1.55t-2.99.97q-1.59.33-3.52.33-2.27 0-4.2-.61-1.92-.62-3.32-1.84-1.4-1.23-2.17-3.05t-.77-4.23q0-1.37.45-2.71.46-1.35 1.49-2.58 1.03-1.22 2.68-2.31 1.64-1.08 4.04-1.89 2.4-.8 5.58-1.31 3.19-.51 7.28-.61v-2.1q0-3.61-1.54-5.34t-4.44-1.73q-2.1 0-3.49.49-1.38.49-2.43 1.1t-1.91 1.1q-.85.49-1.9.49-.91 0-1.54-.47t-1.02-1.1m62.83-3.33-2.28 3.15q-.38.49-.75.77t-1.07.28q-.66 0-1.29-.4t-1.51-.91q-.87-.51-2.08-.91t-2.99-.4q-2.28 0-3.99.82-1.72.82-2.86 2.36-1.13 1.54-1.69 3.73t-.56 4.95q0 2.87.61 5.11t1.77 3.77q1.15 1.52 2.8 2.31 1.64.78 3.71.78 2.06 0 3.34-.5 1.28-.51 2.15-1.12.88-.61 1.52-1.12.65-.51 1.46-.51 1.05 0 1.57.8l2.49 3.15q-1.44 1.68-3.12 2.82t-3.48 1.82-3.71.97q-1.91.28-3.8.28-3.32 0-6.26-1.25-2.94-1.24-5.15-3.62-2.2-2.38-3.48-5.83t-1.28-7.86q0-3.95 1.14-7.33t3.34-5.84q2.21-2.47 5.46-3.87 3.26-1.4 7.49-1.4 4.03 0 7.05 1.29 3.03 1.3 5.45 3.71m12.56 9.38h16.31q0-1.68-.47-3.16-.47-1.49-1.42-2.61-.94-1.12-2.4-1.77-1.45-.65-3.37-.65-3.75 0-5.9 2.14-2.15 2.13-2.75 6.05m22.05 5.22h-22.22q.21 2.76.98 4.78.77 2.01 2.03 3.32t2.99 1.96 3.83.65 3.63-.49q1.52-.49 2.66-1.09 1.13-.59 1.99-1.08t1.66-.49q1.09 0 1.61.8l2.49 3.15q-1.44 1.68-3.22 2.82-1.79 1.14-3.73 1.82t-3.95.97q-2.02.28-3.91.28-3.74 0-6.96-1.25-3.22-1.24-5.6-3.67-2.38-2.44-3.75-6.02-1.36-3.59-1.36-8.32 0-3.67 1.19-6.91t3.41-5.63q2.22-2.4 5.42-3.8 3.21-1.4 7.23-1.4 3.4 0 6.27 1.08 2.87 1.09 4.93 3.17 2.07 2.08 3.24 5.11t1.17 6.91q0 1.96-.42 2.65-.42.68-1.61.68m17.15-35.14v19.95q2.1-1.96 4.62-3.19 2.52-1.22 5.92-1.22 2.94 0 5.21 1 2.28.99 3.8 2.8 1.52 1.8 2.31 4.3t.79 5.51v22.86h-8.65v-22.86q0-3.29-1.5-5.09-1.51-1.8-4.59-1.8-2.24 0-4.2 1.01-1.96 1.02-3.71 2.77v25.97h-8.64v-52.01zm46.73 15.54q3.99 0 7.26 1.29 3.27 1.3 5.6 3.68t3.59 5.81 1.26 7.66q0 4.27-1.26 7.7t-3.59 5.85q-2.33 2.41-5.6 3.71t-7.26 1.3q-4.03 0-7.32-1.3t-5.61-3.71q-2.33-2.42-3.61-5.85t-1.28-7.7q0-4.23 1.28-7.66t3.61-5.81q2.32-2.38 5.61-3.68 3.29-1.29 7.32-1.29m0 30.34q4.48 0 6.63-3.01t2.15-8.82-2.15-8.85q-2.15-3.05-6.63-3.05-4.55 0-6.74 3.07-2.19 3.06-2.19 8.83 0 5.78 2.19 8.81 2.19 3.02 6.74 3.02m24.43-45.88h8.64v52.01h-8.64zm39.83 41.37v-16.1q-1.47-1.79-3.2-2.52-1.74-.74-3.73-.74-1.96 0-3.54.74-1.57.73-2.69 2.22t-1.72 3.78q-.59 2.29-.59 5.41 0 3.15.51 5.34.5 2.18 1.45 3.57.94 1.38 2.31 1.99 1.36.61 3.04.61 2.7 0 4.59-1.12t3.57-3.18m0-41.37h8.64v52.01h-5.28q-1.72 0-2.17-1.58l-.74-3.46q-2.17 2.48-4.98 4.02-2.82 1.55-6.57 1.55-2.94 0-5.39-1.23t-4.21-3.55q-1.77-2.33-2.73-5.76-.97-3.43-.97-7.84 0-3.99 1.09-7.42 1.08-3.43 3.11-5.95t4.87-3.94q2.83-1.42 6.37-1.42 3.01 0 5.14.95 2.14.94 3.82 2.55zm24.01 29.92h16.31q0-1.68-.47-3.16-.48-1.49-1.42-2.61-.95-1.12-2.4-1.77t-3.38-.65q-3.74 0-5.89 2.14-2.16 2.13-2.75 6.05m22.05 5.22h-22.23q.21 2.76.98 4.78.77 2.01 2.03 3.32t3 1.96q1.73.65 3.83.65t3.62-.49 2.66-1.09q1.14-.59 1.99-1.08.86-.49 1.67-.49 1.08 0 1.61.8l2.48 3.15q-1.43 1.68-3.22 2.82-1.78 1.14-3.72 1.82-1.95.68-3.96.97-2.01.28-3.9.28-3.75 0-6.97-1.25-3.22-1.24-5.6-3.67-2.38-2.44-3.74-6.02-1.37-3.59-1.37-8.32 0-3.67 1.19-6.91t3.41-5.63q2.23-2.4 5.43-3.8t7.23-1.4q3.39 0 6.26 1.08 2.87 1.09 4.94 3.17 2.06 2.08 3.23 5.11 1.18 3.03 1.18 6.91 0 1.96-.42 2.65-.42.68-1.61.68m16.13-16.87.53 4.06q1.68-3.22 3.99-5.06t5.46-1.84q2.48 0 3.99 1.09l-.56 6.47q-.18.63-.51.9-.33.26-.89.26-.53 0-1.56-.18-1.03-.17-2.01-.17-1.44 0-2.56.42t-2.01 1.21q-.89.78-1.58 1.9-.68 1.12-1.27 2.56v22.12h-8.65v-35.91h5.08q1.33 0 1.85.47.53.47.7 1.7"/></svg>