<?xml version="1.0" encoding="UTF-8"?>
<svg width="512" height="512" version="1.1" viewBox="0 0 512 512" xmlns="http://www.w3.org/2000/svg" xmlns:cc="http://creativecommons.org/ns#" xmlns:dc="http://purl.org/dc/elements/1.1/" xmlns:rdf="http://www.w3.org/1999/02/22-rdf-syntax-ns#">
 <metadata>
  <rdf:RDF>
   <cc:Work rdf:about="">
    <dc:format>image/svg+xml</dc:format>
    <dc:type rdf:resource="http://purl.org/dc/dcmitype/StillImage"/>
    <dc:title>Moodle-Logo-RGB</dc:title>
   </cc:Work>
  </rdf:RDF>
 </metadata>
 <title>Moodle-Logo-RGB</title>
 <g transform="matrix(1.2994 0 0 1.2994 32.031 6.3604)" data-name="Layer 1">
  <path d="m289.61 309.77v-108.26q0-33.94-28-33.95t-28.06 33.95v108.26h-55.15v-108.26q0-33.94-27.57-33.95-28.05 0-28 33.95v108.26h-55.16v-114.65q0-35.43 24.6-53.63 21.66-16.25 58.56-16.25 37.41 0 55.12 19.19 15.26-19.19 55.62-19.19 36.9 0 58.54 16.25 24.6 18.19 24.61 53.63v114.65z" style="fill:#f98012"/>
  <path d="m174.74 116.9 54.74-40-0.7-2.44c-98.78 12.11-143.7 20.69-228.78 70.01l0.79 2.24 6.76 0.07c-0.62 6.81-1.7 23.64-0.32 48.95-9.44 27.32-0.24 45.88 8.4 66.07 1.37-21 1.23-44-5.22-66.89-1.35-25.14-0.24-41.67 0.37-48.1l56.4 0.54a258 258 0 0 0 1.67 33.06c50.4 17.71 101.09-0.06 128-43.72-7.47-8.37-22.11-19.79-22.11-19.79z" style="fill:#333"/>
 </g>
</svg>
